<svg width="162" height="95" viewBox="0 0 162 95" fill="none" xmlns="http://www.w3.org/2000/svg">
<g clip-path="url(#clip0_234_1003)">
<path d="M133.913 94.9996C132.759 95.0159 131.646 94.5689 130.824 93.7587C130.002 92.9485 129.539 91.8426 129.539 90.6887V56.1406C129.531 54.9495 128.567 53.9859 127.375 53.9776H119.755C118.56 53.9776 117.591 54.946 117.591 56.1406C117.591 57.3353 118.56 58.3037 119.755 58.3037H125.165C125.763 58.3037 126.247 58.7879 126.247 59.3852C126.247 59.9825 125.763 60.4667 125.165 60.4667H119.877C117.59 60.3309 115.806 58.4378 115.806 56.1482C115.806 53.8587 117.59 51.9655 119.877 51.8297H127.497C129.881 51.8297 131.817 53.7573 131.825 56.1406V90.6887C131.919 91.809 132.857 92.6704 133.981 92.6704C135.106 92.6704 136.044 91.809 136.138 90.6887V62.6146C136.146 60.2313 138.082 58.3037 140.466 58.3037H145.861C147.056 58.3037 148.025 57.3353 148.025 56.1406C148.025 54.946 147.056 53.9776 145.861 53.9776H136.077C135.663 54.027 135.257 53.8338 135.034 53.4811C134.811 53.1283 134.811 52.679 135.034 52.3262C135.257 51.9735 135.663 51.7803 136.077 51.8297H145.8C148.087 51.9655 149.871 53.8587 149.871 56.1482C149.871 58.4378 148.087 60.3309 145.8 60.4667H140.405C139.832 60.4627 139.282 60.6872 138.876 61.0904C138.469 61.4937 138.241 62.0423 138.241 62.6146V90.6887C138.233 93.072 136.297 94.9996 133.913 94.9996ZM82.0821 43.1927C80.9302 43.1968 79.8238 42.7433 79.0064 41.9319C78.189 41.1206 77.7275 40.018 77.7235 38.8666V4.31854C77.7235 3.13233 76.7614 2.17071 75.5746 2.17071H67.9547C67.141 2.10228 66.358 2.49748 65.93 3.19264C65.5021 3.88779 65.5021 4.76452 65.93 5.45967C66.358 6.15483 67.141 6.55003 67.9547 6.4816H73.3495C73.9471 6.4816 74.4316 6.96582 74.4316 7.56313C74.4316 8.16044 73.9471 8.64467 73.3495 8.64467H68.0461C66.4413 8.73997 64.9158 7.93835 64.0846 6.56291C63.2534 5.18747 63.2534 3.46485 64.0846 2.0894C64.9158 0.713961 66.4413 -0.0876645 68.0461 0.00764495H75.6661C78.048 0.00764495 79.979 1.9377 79.979 4.31854V38.8666C79.979 40.0612 80.9478 41.0297 82.143 41.0297C83.3382 41.0297 84.3071 40.0612 84.3071 38.8666V10.8077C84.307 8.42441 86.2355 6.48999 88.62 6.4816H94.0149C94.8286 6.55003 95.6115 6.15483 96.0394 5.45967C96.4674 4.76452 96.4674 3.88779 96.0394 3.19264C95.6115 2.49748 94.8286 2.10228 94.0149 2.17071H84.2461C83.6485 2.17071 83.164 1.68649 83.164 1.08918C83.164 0.802342 83.278 0.527252 83.4809 0.324426C83.6839 0.121599 83.9592 0.00764495 84.2461 0.00764495H93.9539C95.5587 -0.0876645 97.0842 0.713961 97.9154 2.0894C98.7466 3.46485 98.7466 5.18747 97.9154 6.56291C97.0842 7.93835 95.5587 8.73997 93.9539 8.64467H88.559C87.3673 8.65297 86.4033 9.61655 86.395 10.8077V38.8666C86.395 41.2499 84.4665 43.1843 82.0821 43.1927ZM107.777 94.9996C107.348 94.9981 106.923 94.9366 106.512 94.8168C105.42 94.4768 104.506 93.7218 103.967 92.7147L83.9717 55.1353C83.706 54.6292 83.2496 54.2499 82.7033 54.0812C82.157 53.9125 81.5659 53.9684 81.0609 54.2365C80.3533 54.6073 79.9122 55.3421 79.9179 56.1406V90.6887C80.0122 91.809 80.9496 92.6704 82.0744 92.6704C83.1993 92.6704 84.1365 91.809 84.2308 90.6887V69.0885C84.2142 68.5835 84.5498 68.1343 85.0389 68.0066C85.528 67.8789 86.0404 68.1067 86.273 68.5554L98.4649 91.6636C98.8358 92.3709 99.571 92.8118 100.37 92.806C100.967 92.806 101.452 93.2903 101.452 93.8876C101.452 94.4849 100.967 94.9691 100.37 94.9691C98.7722 94.9658 97.3044 94.089 96.5447 92.6842L86.395 73.4299V90.6887C86.2591 92.9742 84.3651 94.7582 82.0744 94.7582C79.7838 94.7582 77.8897 92.9742 77.7539 90.6887V56.1406C77.7517 54.772 78.3999 53.4837 79.5003 52.6693C80.6007 51.8549 82.0227 51.6111 83.3318 52.0125C84.4288 52.342 85.3463 53.0999 85.8767 54.1147L105.872 91.6941C106.141 92.2014 106.601 92.5799 107.152 92.7451C107.699 92.9091 108.289 92.8545 108.798 92.5928C109.503 92.2118 109.942 91.4747 109.941 90.6735V56.1406C109.941 54.946 108.972 53.9776 107.777 53.9776C106.581 53.9776 105.612 54.946 105.612 56.1406V82.0364C105.662 82.4507 105.469 82.8564 105.116 83.0791C104.763 83.3018 104.313 83.3018 103.96 83.0791C103.607 82.8564 103.414 82.4507 103.464 82.0364V56.1406C103.599 53.8551 105.493 52.0711 107.784 52.0711C110.075 52.0711 111.969 53.8551 112.105 56.1406V90.6887C112.079 92.2679 111.198 93.7088 109.803 94.4512C109.183 94.7987 108.487 94.9871 107.777 94.9996ZM68.0461 43.1927H55.0769C52.6925 43.1843 50.764 41.2499 50.764 38.8666V4.31854C50.764 3.12392 49.7952 2.15548 48.6 2.15548C47.4048 2.15548 46.436 3.12392 46.436 4.31854V33.5199C46.436 33.8067 46.5499 34.0818 46.7529 34.2846C46.9558 34.4875 47.2309 34.6014 47.5179 34.6014C47.9323 34.552 48.3383 34.7452 48.5611 35.0979C48.7839 35.4506 48.7839 35.9 48.5611 36.2527C48.3383 36.6055 47.9323 36.7987 47.5179 36.7492C46.661 36.7492 45.8393 36.409 45.2334 35.8034C44.6275 35.1978 44.2871 34.3764 44.2871 33.5199V4.31854C44.2871 1.9377 46.2181 0.00764495 48.6 0.00764495C50.9819 0.00764495 52.9129 1.9377 52.9129 4.31854V38.8666C52.9212 40.0578 53.8852 41.0214 55.0769 41.0297H68.0461C69.2413 41.0297 70.2102 40.0612 70.2102 38.8666C70.2102 37.672 69.2413 36.7035 68.0461 36.7035H56.159C55.7446 36.753 55.3387 36.5598 55.1159 36.207C54.8931 35.8543 54.8931 35.4049 55.1159 35.0522C55.3387 34.6995 55.7446 34.5063 56.159 34.5557H68.0461C70.3328 34.6915 72.1175 36.5846 72.1175 38.8742C72.1175 41.1638 70.3328 43.0569 68.0461 43.1927ZM28.0871 94.9996H27.7061C26.5604 94.9084 25.5 94.3592 24.7648 93.4763L6.73599 71.9523C6.56911 71.7569 6.47729 71.5085 6.47693 71.2516V56.1406C6.5454 55.3273 6.15002 54.5447 5.45455 54.117C4.75907 53.6893 3.88191 53.6893 3.18643 54.117C2.49096 54.5447 2.09558 55.3273 2.16405 56.1406V90.6887C2.25835 91.809 3.19572 92.6704 4.32055 92.6704C5.44539 92.6704 6.38262 91.809 6.47693 90.6887V79.8886C6.47693 79.2913 6.96143 78.8071 7.55902 78.8071C8.15662 78.8071 8.64098 79.2913 8.64098 79.8886V90.6887C8.50511 92.9742 6.6112 94.7582 4.32055 94.7582C2.0299 94.7582 0.135867 92.9742 0 90.6887V56.1406C0.135867 53.8551 2.0299 52.0711 4.32055 52.0711C6.6112 52.0711 8.50511 53.8551 8.64098 56.1406V70.8555L26.426 92.0749C26.8037 92.5323 27.3572 92.8089 27.9499 92.8365C28.8171 92.9073 29.6424 92.452 30.0448 91.6809C30.4471 90.9098 30.3483 89.9728 29.794 89.3025L17.0534 74.0697C16.7182 73.6683 16.7182 73.0848 17.0534 72.6835L29.794 57.4507C30.1495 57.0261 30.3246 56.4793 30.2817 55.9274C30.2392 55.3553 29.968 54.8245 29.5292 54.4547C29.0905 54.085 28.5212 53.9075 27.9499 53.9623C27.3572 53.9899 26.8037 54.2666 26.426 54.724L13.7921 69.8045C13.3845 70.1135 12.8162 70.095 12.4296 69.7601C12.043 69.4252 11.9438 68.8655 12.1919 68.4183L24.7648 53.3226C25.5 52.4396 26.5604 51.8904 27.7061 51.7993C28.8435 51.6911 29.9762 52.0483 30.8455 52.7894C31.7352 53.5198 32.2931 54.5775 32.3935 55.7239C32.4938 56.8703 32.1282 58.0088 31.379 58.8825L19.1871 73.3842L31.379 87.8858C32.4576 89.1696 32.6937 90.962 31.9845 92.4812C31.2752 94.0004 29.7491 94.9708 28.0719 94.9691L28.0871 94.9996ZM157.672 94.9996C155.29 94.9996 153.359 93.0695 153.359 90.6887V65.8592C153.359 65.2619 153.843 64.7776 154.441 64.7776C155.039 64.7776 155.523 65.2619 155.523 65.8592V90.6887C155.617 91.809 156.555 92.6704 157.679 92.6704C158.804 92.6704 159.742 91.809 159.836 90.6887V56.1406C159.904 55.3273 159.509 54.5447 158.814 54.117C158.118 53.6893 157.241 53.6893 156.545 54.117C155.85 54.5447 155.455 55.3273 155.523 56.1406V60.4515C155.523 61.0488 155.039 61.5331 154.441 61.5331C153.843 61.5331 153.359 61.0488 153.359 60.4515V56.1406C153.495 53.8551 155.389 52.0711 157.679 52.0711C159.97 52.0711 161.864 53.8551 162 56.1406V90.6887C161.992 93.072 160.056 94.9996 157.672 94.9996ZM125.272 43.1927H112.318C109.934 43.1843 108.005 41.2499 108.005 38.8666V24.8372C108.001 24.5517 108.112 24.2766 108.312 24.0733C108.513 23.87 108.786 23.7556 109.072 23.7556H119.877C120.691 23.8241 121.474 23.4289 121.902 22.7337C122.329 22.0385 122.329 21.1618 121.902 20.4667C121.474 19.7715 120.691 19.3763 119.877 19.4447H109.072C108.786 19.4448 108.513 19.3303 108.312 19.1271C108.112 18.9238 108.001 18.6486 108.005 18.3632V7.62407C108.001 7.33864 108.112 7.06349 108.312 6.86021C108.513 6.65693 108.786 6.54251 109.072 6.54254H125.272C126.086 6.61097 126.869 6.21576 127.296 5.5206C127.724 4.82545 127.724 3.94873 127.296 3.25357C126.869 2.55842 126.086 2.16321 125.272 2.23164H105.841C104.657 2.20591 103.673 3.13581 103.631 4.31854V33.5199C103.631 33.8067 103.745 34.0818 103.948 34.2846C104.151 34.4875 104.426 34.6014 104.713 34.6014C105.128 34.552 105.534 34.7452 105.756 35.0979C105.979 35.4506 105.979 35.9 105.756 36.2527C105.534 36.6055 105.128 36.7987 104.713 36.7492C102.944 36.7243 101.521 35.2882 101.513 33.5199V4.31854C101.521 1.93524 103.457 0.0076302 105.841 0.00764495H125.272C126.877 -0.0876645 128.402 0.713961 129.233 2.0894C130.064 3.46485 130.064 5.18747 129.233 6.56291C128.402 7.93835 126.877 8.73997 125.272 8.64467H110.154V17.2817H119.877C121.482 17.1864 123.007 17.988 123.838 19.3634C124.67 20.7389 124.67 22.4615 123.838 23.8369C123.007 25.2124 121.482 26.014 119.877 25.9187H110.154V38.8666C110.162 40.0578 111.126 41.0214 112.318 41.0297H125.272C126.467 41.0297 127.436 40.0612 127.436 38.8666C127.436 37.672 126.467 36.7035 125.272 36.7035H113.4C112.986 36.753 112.58 36.5598 112.357 36.207C112.134 35.8543 112.134 35.4049 112.357 35.0522C112.58 34.6995 112.986 34.5063 113.4 34.5557H125.272C126.877 34.4604 128.402 35.262 129.233 36.6375C130.064 38.0129 130.064 39.7355 129.233 41.111C128.402 42.4864 126.877 43.288 125.272 43.1927ZM4.32809 43.1927C3.84576 43.1867 3.36743 43.1045 2.91081 42.949C1.8301 42.5728 0.942449 41.7841 0.44198 40.7555C-0.0625184 39.7296 -0.133908 38.5442 0.243855 37.4652L12.1919 2.91712C12.8002 1.18322 14.438 0.0225572 16.2763 0.0225572C18.1145 0.0225572 19.7522 1.18322 20.3605 2.91712L27.7823 24.4868C27.8883 24.8165 27.8322 25.1768 27.6312 25.4588C27.4301 25.7407 27.1076 25.9112 26.7613 25.9187H12.5272C12.1764 25.9163 11.8479 25.7465 11.6433 25.4617C11.4478 25.1702 11.3973 24.8052 11.5061 24.4716L16.0781 11.5237C16.3349 11.0783 16.8698 10.8751 17.3577 11.0376C17.8456 11.2002 18.1517 11.6836 18.0898 12.1939L14.0512 23.7556H25.1611L18.2879 3.61783C17.9838 2.75088 17.1649 2.17055 16.2457 2.17055C15.3266 2.17055 14.5077 2.75088 14.2036 3.61783L2.28604 38.1659C2.09478 38.7044 2.12762 39.297 2.37737 39.811C2.62688 40.329 3.07382 40.7254 3.61803 40.9115C4.16224 41.0976 4.75833 41.0579 5.27298 40.8012C5.77963 40.5631 6.17332 40.1368 6.37027 39.613L9.41828 31.0065C9.56778 30.57 9.97777 30.2764 10.4393 30.2753H28.9557C29.4173 30.2764 29.8274 30.57 29.9769 31.0065L33.0248 39.613C33.4663 40.6619 34.6454 41.1894 35.7221 40.82C36.7989 40.4505 37.4052 39.3104 37.1091 38.2116L25.1458 3.61783C24.8764 2.71491 24.0463 2.09565 23.1037 2.09455C22.8181 2.09458 22.5443 1.98015 22.3438 1.77687C22.1433 1.57359 22.0328 1.29845 22.0368 1.01302C22.0769 0.445637 22.5499 0.00623289 23.1189 0.00764495C24.957 0.0117264 26.5904 1.17971 27.188 2.91712L39.0751 37.4652C39.4484 38.5478 39.3754 39.7345 38.8722 40.7633C38.369 41.7921 37.477 42.5785 36.3929 42.949C35.3134 43.3266 34.1274 43.2552 33.101 42.751C32.0678 42.2486 31.2779 41.3548 30.9065 40.268L28.1786 32.3926H11.1403L8.41245 40.268C7.81053 42.0109 6.17276 43.1837 4.32809 43.1927ZM38.6636 94.9996C38.187 94.9992 37.7136 94.9221 37.2615 94.7711C36.1738 94.4008 35.2789 93.6119 34.7754 92.5796C34.2718 91.5472 34.2012 90.3566 34.5793 89.272L46.4664 54.7392C47.0667 53.0014 48.7037 51.8354 50.5431 51.8354C52.3824 51.8354 54.0194 53.0014 54.6198 54.7392L62.0416 76.2937C62.1577 76.6266 62.1067 76.995 61.9044 77.2838C61.6758 77.5672 61.3228 77.7208 60.9595 77.6951H46.8779C46.5259 77.6979 46.1951 77.5269 45.994 77.2381C45.7894 76.9559 45.738 76.5908 45.8568 76.2632L50.4287 63.3153C50.63 62.7506 51.2478 62.4521 51.8156 62.645C52.3725 62.8459 52.6645 63.4568 52.4709 64.016L48.4476 75.5473H59.5574L52.5776 55.4399C52.2814 54.569 51.4633 53.9833 50.5431 53.9833C49.6228 53.9833 48.8047 54.569 48.5085 55.4399L36.5757 89.9727C36.3884 90.5183 36.4267 91.116 36.6824 91.6331C37.0537 92.4421 37.883 92.9411 38.772 92.8906C39.661 92.8401 40.4285 92.2504 40.7058 91.4046L43.7537 82.7828C43.9083 82.3524 44.3173 82.0657 44.7748 82.0669H63.2913C63.7488 82.0657 64.1576 82.3524 64.3123 82.7828L67.3603 91.4046C67.7497 92.53 68.9759 93.1292 70.1035 92.7451C71.2314 92.3493 71.8297 91.1191 71.4445 89.988L59.4356 55.4399C59.1537 54.5458 58.3311 53.9323 57.3934 53.9166C56.7958 53.9166 56.3114 53.4324 56.3114 52.8351C56.3114 52.5496 56.4258 52.2761 56.6292 52.0757C56.8326 51.8753 57.1078 51.7647 57.3934 51.7688C59.2355 51.771 60.8745 52.9385 61.4777 54.6783L73.3648 89.2111C73.9448 90.866 73.4641 92.7071 72.149 93.8677C70.834 95.0283 68.9466 95.277 67.3755 94.4969C66.3469 94.0003 65.5616 93.1109 65.1963 92.0292L62.4836 84.1995H45.4759L42.7478 92.0901C42.382 93.1765 41.5899 94.0673 40.5534 94.5578C39.9679 94.8541 39.3198 95.0056 38.6636 94.9996Z" fill="#995832"/>
</g>
<defs>
<clipPath id="clip0_234_1003">
<rect width="162" height="95" fill="white"/>
</clipPath>
</defs>
</svg>
