<svg xmlns="http://www.w3.org/2000/svg" xmlns:xlink="http://www.w3.org/1999/xlink" width="40.001" height="40.001" viewBox="0 0 40.001 40.001">
  <defs>
    <clipPath id="clip-path">
      <path id="Pfad_1209" data-name="Pfad 1209" d="M0-26.221H40v-40H0Z" transform="translate(0 66.222)" fill="none"/>
    </clipPath>
  </defs>
  <g id="Gruppe_591" data-name="Gruppe 591" transform="translate(0 66.222)">
    <path id="Pfad_1202" data-name="Pfad 1202" d="M0-26.221H39.943v-40H0Z" fill="#6da0c9"/>
    <path id="Pfad_1203" data-name="Pfad 1203" d="M0-26.221H39.943v-40H0Z" fill="#c1283f"/>
    <g id="Gruppe_590" data-name="Gruppe 590" transform="translate(0 -66.222)" clip-path="url(#clip-path)">
      <g id="Gruppe_585" data-name="Gruppe 585" transform="translate(13.422 17.925)">
        <path id="Pfad_1204" data-name="Pfad 1204" d="M-.558-4.545A36.507,36.507,0,0,1,3.87-6.808,4.118,4.118,0,0,0,3.042-9,9.228,9.228,0,0,0-1.41-11.479C-.145-9.144.391-5.81-.558-4.545" transform="translate(1.41 11.479)" fill="#fff"/>
      </g>
      <g id="Gruppe_586" data-name="Gruppe 586" transform="translate(3.665 29.287)">
        <path id="Pfad_1205" data-name="Pfad 1205" d="M-4.211,0C-9.539.341-12.532,4.769-9.3,12.773c1.946,4.817,6.18,9,7.932,14.282C2.091,37.542,11.142,43.308,16.105,46.3c5.62,3.382,10.219,9,14.671,11.532,3.017,1.7,20.656,8.832,25.133,10.268s19,4.258,18.808-1.581a11.089,11.089,0,0,1-7.688-.39c-2.75-1-6.934-.827-15.133-3.819-8.2-2.968-17.032-6.4-19.684-8.054-3.479-2.165-2.725-3.966-6.886-6.69S13.672,40.583,7.76,33.551c-3.65-4.33-6.01-6.545-9.051-15.766C-2.678,13.552-6.765,8.832-7.13,5.377-7.544,1.9-5.622,1.29-4.211,0" transform="translate(10.635)" fill="#fff"/>
      </g>
      <g id="Gruppe_587" data-name="Gruppe 587" transform="translate(17.461 24.078)">
        <path id="Pfad_1206" data-name="Pfad 1206" d="M0-1.82c2.287-1.217,7.591-5.134,10.706-.754,2.335,3.455,2.043,5.791,5.4,10.706a91.706,91.706,0,0,0,9.927,12.9c4.428,4.89,7.835,10.875,10.341,14.111S44.768,42.656,48.88,45.6c4.112,2.968,10.292,4.161,13.941,7.98s7.713,7.47,8.9,9.441c-4.671-1.971-9.05-3.966-11.337-6.277-3.577-3.65-7.883-3.82-12.433-6.788-4.574-2.968-10.778-7.2-14.525-11.532-3.747-4.306-7.956-12.141-9.221-14.282s-5.572-5.474-7.566-7.3S13.09,9.275,12.092,6.793c-1-2.506-1.97-5.353-4.452-7.08C5.158-2.063,1.654-1.82,0-1.82" transform="translate(0 4.596)" fill="#fff"/>
      </g>
      <g id="Gruppe_588" data-name="Gruppe 588" transform="translate(19.237 30.358)">
        <path id="Pfad_1207" data-name="Pfad 1207" d="M0,0C2.749,3.236,1.606,13.187,10.51,18.321A67.974,67.974,0,0,1,5.352,6.472C4.55,3.8,2.847,2.336,0,0" fill="#fff"/>
      </g>
      <g id="Gruppe_589" data-name="Gruppe 589" transform="translate(5.077 6.868)">
        <path id="Pfad_1208" data-name="Pfad 1208" d="M-4.051-8.157c-2.092-3.406-3.09-7.639-2.481-9.951.608-2.336,1.8-1.314,2.19-1.922-2.944-1.533-4.769.341-5.328,1.873a11.544,11.544,0,0,0,.292,7.835c.608,1.728,2.287,6.277,1.411,8.9a13.805,13.805,0,0,0,3.6-.924,5.4,5.4,0,0,0,.317-5.815" transform="translate(10.231 20.601)" fill="#fff"/>
      </g>
    </g>
  </g>
</svg>
